{
  "source": "C:\\Users\\Peter\\Desktop\\stuff\\MIUN\\quantitative_research\\video_compression\\videos\\UVG\\ReadySteadyGo_1920x1080_120fps_420_8bit_YUV.y4m",
  "output": "C:\\Users\\Peter\\Desktop\\stuff\\MIUN\\quantitative_research\\video_compression\\compressed_videos\\UVG\\av1\\1\\ReadySteadyGo_1920x1080_120fps_420_8bit_YUV_av1.mkv",
  "codec": "av1",
  "ok": "[yuv4mpegpipe @ 000001923e435c40] Stream #0: not enough frames to estimate rate; consider increasing probesize\nInput #0, yuv4mpegpipe, from 'C:\\Users\\Peter\\Desktop\\stuff\\MIUN\\quantitative_research\\video_compression\\videos\\UVG\\ReadySteadyGo_1920x1080_120fps_420_8bit_YUV.y4m':\n  Duration: 00:00:05.00, start: 0.000000, bitrate: 2985989 kb/s\n  Stream #0:0: Video: rawvideo (I420 / 0x30323449), yuv420p(progressive), 1920x1080, 120 fps, 120 tbr, 120 tbn\n[out#0/matroska @ 000001923e439940] Codec AVOption b:a (set bitrate (in bits/s)) has not been used for any stream. The most likely reason is either wrong type (e.g. a video option with no video streams) or that it is a private option of some decoder which was not actually used for any stream.\nStream mapping:\n  Stream #0:0 -> #0:0 (rawvideo (native) -> av1 (libsvtav1))\nPress [q] to stop, [?] for help\nSvt[info]: -------------------------------------------\nSvt[info]: SVT [version]:\tSVT-AV1 Encoder Lib v3.1.0-19-g6ecfe8ec\nSvt[info]: SVT [build]  :\tGCC 15.2.0\t 64 bit\nSvt[info]: LIB Build date: Aug 17 2025 11:37:13\nSvt[info]: -------------------------------------------\n[libsvtav1 @ 000001923e43c280] Specified chroma sample location center is unsupported on the AV1 bit stream level. Usage of a container that allows passing this information - such as Matroska - is recommended.\nSvt[info]: Level of Parallelism: 5\nSvt[info]: Number of PPCS 93\nSvt[info]: [asm level on system : up to avx2]\nSvt[info]: [asm level selected : up to avx2]\nSvt[info]: -------------------------------------------\nSvt[info]: SVT [config]: main profile\ttier (auto)\tlevel (auto)\nSvt[info]: SVT [config]: width / height / fps numerator / fps denominator \t\t: 1920 / 1080 / 120 / 1\nSvt[info]: SVT [config]: bit-depth / color format \t\t\t\t\t: 8 / YUV420\nSvt[info]: SVT [config]: preset / tune / pred struct \t\t\t\t\t: 4 / PSNR / random access\nSvt[info]: SVT [config]: gop size / mini-gop size / key-frame type \t\t\t: 641 / 16 / key frame\nSvt[info]: SVT [config]: BRC mode / target bitrate (kbps)\t\t\t\t: VBR / 1000 \nSvt[info]: SVT [config]: AQ mode / Variance Boost \t\t\t\t\t: 2 / 0\nSvt[info]: SVT [config]: sharpness / luminance-based QP bias \t\t\t\t: 0 / 0\nSvt[info]: SVT [config]: QP scale compress strength \t\t\t\t\t: 0\nSvt[info]: -------------------------------------------\nOutput #0, matroska, to 'C:\\Users\\Peter\\Desktop\\stuff\\MIUN\\quantitative_research\\video_compression\\compressed_videos\\UVG\\av1\\1\\ReadySteadyGo_1920x1080_120fps_420_8bit_YUV_av1.mkv':\n  Metadata:\n    encoder         : Lavf62.3.100\n  Stream #0:0: Video: av1 (AV01 / 0x31305641), yuv420p(tv, progressive), 1920x1080, q=2-31, 1000 kb/s, 120 fps, 1k tbn\n    Metadata:\n      encoder         : Lavc62.11.100 libsvtav1\n    Side data:\n      cpb: bitrate max/min/avg: 0/0/1000000 buffer size: 1000000 vbv_delay: N/A\nframe=    0 fps=0.0 q=0.0 size=       0KiB time=N/A bitrate=N/A speed=N/A elapsed=0:00:03.93    \nframe=    0 fps=0.0 q=0.0 size=       0KiB time=N/A bitrate=N/A speed=N/A elapsed=0:00:04.52    \nframe=    0 fps=0.0 q=0.0 size=       0KiB time=N/A bitrate=N/A speed=N/A elapsed=0:00:05.09    \nframe=    0 fps=0.0 q=0.0 size=       0KiB time=N/A bitrate=N/A speed=N/A elapsed=0:00:05.65    \nframe=    0 fps=0.0 q=0.0 size=       0KiB time=N/A bitrate=N/A speed=N/A elapsed=0:00:06.22    \nframe=    0 fps=0.0 q=0.0 size=       0KiB time=N/A bitrate=N/A speed=N/A elapsed=0:00:06.80    \nframe=    0 fps=0.0 q=0.0 size=       0KiB time=N/A bitrate=N/A speed=N/A elapsed=0:00:07.36    \nframe=    0 fps=0.0 q=0.0 size=       0KiB time=N/A bitrate=N/A speed=N/A elapsed=0:00:07.93    \nframe=    0 fps=0.0 q=0.0 size=       0KiB time=N/A bitrate=N/A speed=N/A elapsed=0:00:08.51    \nframe=    0 fps=0.0 q=0.0 size=       0KiB time=N/A bitrate=N/A speed=N/A elapsed=0:00:09.07    \nframe=    0 fps=0.0 q=0.0 size=       0KiB time=N/A bitrate=N/A speed=N/A elapsed=0:00:09.64    \nframe=    0 fps=0.0 q=0.0 size=       0KiB time=N/A bitrate=N/A speed=N/A elapsed=0:00:10.18    \nframe=    0 fps=0.0 q=0.0 size=       0KiB time=N/A bitrate=N/A speed=N/A elapsed=0:00:10.74    \nframe=    0 fps=0.0 q=0.0 size=       0KiB time=N/A bitrate=N/A speed=N/A elapsed=0:00:11.28    \nframe=    0 fps=0.0 q=0.0 size=       0KiB time=N/A bitrate=N/A speed=N/A elapsed=0:00:11.83    \nframe=    0 fps=0.0 q=0.0 size=       0KiB time=N/A bitrate=N/A speed=N/A elapsed=0:00:12.37    \nframe=    0 fps=0.0 q=0.0 size=       0KiB time=N/A bitrate=N/A speed=N/A elapsed=0:00:12.90    \nframe=    0 fps=0.0 q=0.0 size=       0KiB time=N/A bitrate=N/A speed=N/A elapsed=0:00:13.46    \nframe=    0 fps=0.0 q=0.0 size=       0KiB time=N/A bitrate=N/A speed=N/A elapsed=0:00:14.00    \nframe=    0 fps=0.0 q=0.0 size=       0KiB time=N/A bitrate=N/A speed=N/A elapsed=0:00:14.54    \nframe=    0 fps=0.0 q=0.0 size=       0KiB time=N/A bitrate=N/A speed=N/A elapsed=0:00:15.06    \nframe=    0 fps=0.0 q=0.0 size=       0KiB time=N/A bitrate=N/A speed=N/A elapsed=0:00:15.59    \nframe=    0 fps=0.0 q=0.0 size=       0KiB time=N/A bitrate=N/A speed=N/A elapsed=0:00:16.12    \nframe=    0 fps=0.0 q=0.0 size=       0KiB time=N/A bitrate=N/A speed=N/A elapsed=0:00:16.68    \nframe=    0 fps=0.0 q=0.0 size=       0KiB time=N/A bitrate=N/A speed=N/A elapsed=0:00:17.22    \nframe=    0 fps=0.0 q=0.0 size=       0KiB time=N/A bitrate=N/A speed=N/A elapsed=0:00:17.77    \nframe=    0 fps=0.0 q=0.0 size=       0KiB time=N/A bitrate=N/A speed=N/A elapsed=0:00:18.33    \nframe=    0 fps=0.0 q=0.0 size=       0KiB time=N/A bitrate=N/A speed=N/A elapsed=0:00:18.88    \nframe=    0 fps=0.0 q=0.0 size=       0KiB time=N/A bitrate=N/A speed=N/A elapsed=0:00:19.43    \nframe=    0 fps=0.0 q=0.0 size=       0KiB time=N/A bitrate=N/A speed=N/A elapsed=0:00:19.99    \nframe=    0 fps=0.0 q=0.0 size=       0KiB time=N/A bitrate=N/A speed=N/A elapsed=0:00:20.55    \nframe=    0 fps=0.0 q=0.0 size=       0KiB time=N/A bitrate=N/A speed=N/A elapsed=0:00:21.13    \nframe=    0 fps=0.0 q=0.0 size=       0KiB time=N/A bitrate=N/A speed=N/A elapsed=0:00:21.70    \nframe=    0 fps=0.0 q=0.0 size=       0KiB time=N/A bitrate=N/A speed=N/A elapsed=0:00:22.26    \nframe=    0 fps=0.0 q=0.0 size=       0KiB time=N/A bitrate=N/A speed=N/A elapsed=0:00:22.84    \nframe=    0 fps=0.0 q=0.0 size=       0KiB time=N/A bitrate=N/A speed=N/A elapsed=0:00:23.42    \nframe=    0 fps=0.0 q=0.0 size=       0KiB time=N/A bitrate=N/A speed=N/A elapsed=0:00:23.97    \nframe=    0 fps=0.0 q=0.0 size=       0KiB time=N/A bitrate=N/A speed=N/A elapsed=0:00:24.55    \nframe=    0 fps=0.0 q=0.0 size=       0KiB time=N/A bitrate=N/A speed=N/A elapsed=0:00:25.13    \nframe=    0 fps=0.0 q=0.0 size=       0KiB time=N/A bitrate=N/A speed=N/A elapsed=0:00:25.71    \nframe=    0 fps=0.0 q=0.0 size=       0KiB time=N/A bitrate=N/A speed=N/A elapsed=0:00:26.26    \nframe=    0 fps=0.0 q=0.0 size=       0KiB time=N/A bitrate=N/A speed=N/A elapsed=0:00:26.81    \nframe=    1 fps=0.0 q=42.0 size=       1KiB time=00:00:00.00 bitrate=N/A speed=   0x elapsed=0:00:27.36    \nframe=    1 fps=0.0 q=42.0 size=       1KiB time=00:00:00.00 bitrate=N/A speed=   0x elapsed=0:00:27.92    \nframe=    1 fps=0.0 q=42.0 size=       1KiB time=00:00:00.00 bitrate=N/A speed=   0x elapsed=0:00:28.50    \nframe=    1 fps=0.0 q=42.0 size=       1KiB time=00:00:00.00 bitrate=N/A speed=   0x elapsed=0:00:29.08    \nframe=    1 fps=0.0 q=42.0 size=       1KiB time=00:00:00.00 bitrate=N/A speed=   0x elapsed=0:00:29.62    \nframe=    1 fps=0.0 q=42.0 size=       1KiB time=00:00:00.00 bitrate=N/A speed=   0x elapsed=0:00:30.16    \nframe=    1 fps=0.0 q=42.0 size=       1KiB time=00:00:00.00 bitrate=N/A speed=   0x elapsed=0:00:30.72    \nframe=    1 fps=0.0 q=42.0 size=       1KiB time=00:00:00.00 bitrate=N/A speed=   0x elapsed=0:00:31.27    \nframe=    2 fps=0.1 q=63.0 size=       1KiB time=00:00:00.00 bitrate= 537.6kbits/s speed=0.000262x elapsed=0:00:31.82    \nframe=    3 fps=0.1 q=61.0 size=       1KiB time=00:00:00.01 bitrate= 268.8kbits/s speed=0.000515x elapsed=0:00:32.37    \nframe=    4 fps=0.1 q=63.0 size=       1KiB time=00:00:00.02 bitrate= 179.2kbits/s speed=0.000758x elapsed=0:00:32.96    \nframe=    6 fps=0.2 q=60.0 size=       1KiB time=00:00:00.04 bitrate= 107.5kbits/s speed=0.00124x elapsed=0:00:33.53    \nframe=    6 fps=0.2 q=60.0 size=       1KiB time=00:00:00.04 bitrate= 107.5kbits/s speed=0.00122x elapsed=0:00:34.13    \nframe=    8 fps=0.2 q=60.0 size=       1KiB time=00:00:00.05 bitrate=  76.8kbits/s speed=0.00168x elapsed=0:00:34.70    \nframe=    8 fps=0.2 q=60.0 size=       1KiB time=00:00:00.05 bitrate=  76.8kbits/s speed=0.00165x elapsed=0:00:35.28    \nframe=   10 fps=0.3 q=59.0 size=       1KiB time=00:00:00.07 bitrate=  59.7kbits/s speed=0.00209x elapsed=0:00:35.85    \nframe=   12 fps=0.3 q=59.0 size=       1KiB time=00:00:00.09 bitrate=  48.9kbits/s speed=0.00252x elapsed=0:00:36.41    \nframe=   12 fps=0.3 q=59.0 size=       1KiB time=00:00:00.09 bitrate=  48.9kbits/s speed=0.00248x elapsed=0:00:36.98    \nframe=   14 fps=0.4 q=58.0 size=       1KiB time=00:00:00.10 bitrate=  41.4kbits/s speed=0.00288x elapsed=0:00:37.55    \nframe=   15 fps=0.4 q=60.0 size=       1KiB time=00:00:00.11 bitrate=  38.4kbits/s speed=0.00306x elapsed=0:00:38.12    \nframe=   16 fps=0.4 q=58.0 size=       1KiB time=00:00:00.12 bitrate=  35.8kbits/s speed=0.00323x elapsed=0:00:38.69    \nframe=   16 fps=0.4 q=58.0 size=       1KiB time=00:00:00.12 bitrate=  35.8kbits/s speed=0.00318x elapsed=0:00:39.28    \nframe=   17 fps=0.4 q=51.0 size=       1KiB time=00:00:00.13 bitrate=  33.6kbits/s speed=0.00335x elapsed=0:00:39.85    \nframe=   18 fps=0.4 q=57.0 size=       1KiB time=00:00:00.14 bitrate=  31.6kbits/s speed=0.0035x elapsed=0:00:40.44    \nframe=   19 fps=0.5 q=60.0 size=       1KiB time=00:00:00.15 bitrate=  29.9kbits/s speed=0.00366x elapsed=0:00:41.01    \nframe=   19 fps=0.5 q=60.0 size=       1KiB time=00:00:00.15 bitrate=  29.9kbits/s speed=0.00361x elapsed=0:00:41.57    \nframe=   21 fps=0.5 q=59.0 size=       1KiB time=00:00:00.16 bitrate=  26.9kbits/s speed=0.00395x elapsed=0:00:42.14    \nframe=   22 fps=0.5 q=57.0 size=       1KiB time=00:00:00.17 bitrate=  25.6kbits/s speed=0.0041x elapsed=0:00:42.71    \nframe=   23 fps=0.5 q=60.0 size=       1KiB time=00:00:00.18 bitrate=  24.4kbits/s speed=0.00424x elapsed=0:00:43.27    \nframe=   23 fps=0.5 q=60.0 size=       1KiB time=00:00:00.18 bitrate=  24.4kbits/s speed=0.00418x elapsed=0:00:43.83    \nframe=   24 fps=0.5 q=58.0 size=       1KiB time=00:00:00.19 bitrate=  23.4kbits/s speed=0.00432x elapsed=0:00:44.39    \nframe=   26 fps=0.6 q=59.0 size=       1KiB time=00:00:00.20 bitrate=  21.5kbits/s speed=0.00463x elapsed=0:00:44.96    \nframe=   28 fps=0.6 q=57.0 size=       1KiB time=00:00:00.22 bitrate=  19.9kbits/s speed=0.00494x elapsed=0:00:45.52    \nframe=   29 fps=0.6 q=57.0 size=       1KiB time=00:00:00.23 bitrate=  19.2kbits/s speed=0.00506x elapsed=0:00:46.08    \nframe=   31 fps=0.7 q=60.0 size=       1KiB time=00:00:00.24 bitrate=  18.5kbits/s speed=0.00518x elapsed=0:00:46.64    \nframe=   33 fps=0.7 q=51.0 size=       1KiB time=00:00:00.26 bitrate=  16.8kbits/s speed=0.00565x elapsed=0:00:47.21    \nframe=   35 fps=0.7 q=60.0 size=       1KiB time=00:00:00.28 bitrate=  15.8kbits/s speed=0.00593x elapsed=0:00:47.77    \nframe=   36 fps=0.7 q=57.0 size=       1KiB time=00:00:00.29 bitrate=  15.4kbits/s speed=0.00603x elapsed=0:00:48.33    \nframe=   37 fps=0.8 q=59.0 size=       1KiB time=00:00:00.30 bitrate=  14.9kbits/s speed=0.00614x elapsed=0:00:48.88    \nframe=   39 fps=0.8 q=60.0 size=       1KiB time=00:00:00.31 bitrate=  14.1kbits/s speed=0.0064x elapsed=0:00:49.45    \nframe=   40 fps=0.8 q=58.0 size=       1KiB time=00:00:00.32 bitrate=  13.8kbits/s speed=0.0065x elapsed=0:00:50.01    \nframe=   41 fps=0.8 q=56.0 size=       1KiB time=00:00:00.33 bitrate=  13.4kbits/s speed=0.00659x elapsed=0:00:50.61    \nframe=   43 fps=0.8 q=60.0 size=       1KiB time=00:00:00.35 bitrate=  12.8kbits/s speed=0.00684x elapsed=0:00:51.18    \nframe=   44 fps=0.8 q=58.0 size=       1KiB time=00:00:00.35 bitrate=  12.5kbits/s speed=0.00692x elapsed=0:00:51.76    \nframe=   46 fps=0.9 q=58.0 size=       1KiB time=00:00:00.37 bitrate=  11.9kbits/s speed=0.00716x elapsed=0:00:52.33    \nframe=   49 fps=0.9 q=46.0 size=       1KiB time=00:00:00.40 bitrate=  11.2kbits/s speed=0.00756x elapsed=0:00:52.90    \nframe=   50 fps=0.9 q=58.0 size=       1KiB time=00:00:00.40 bitrate=  11.0kbits/s speed=0.00764x elapsed=0:00:53.44    \nframe=   51 fps=0.9 q=60.0 size=       1KiB time=00:00:00.41 bitrate=  10.8kbits/s speed=0.00772x elapsed=0:00:54.00    \nframe=   52 fps=1.0 q=58.0 size=       1KiB time=00:00:00.42 bitrate=  10.5kbits/s speed=0.00779x elapsed=0:00:54.55    \nframe=   54 fps=1.0 q=58.0 size=       1KiB time=00:00:00.44 bitrate=  10.1kbits/s speed=0.00801x elapsed=0:00:55.12    \nframe=   55 fps=1.0 q=60.0 size=       1KiB time=00:00:00.45 bitrate=  10.0kbits/s speed=0.00808x elapsed=0:00:55.69    \nframe=   55 fps=1.0 q=60.0 size=       1KiB time=00:00:00.45 bitrate=  10.0kbits/s speed=0.008x elapsed=0:00:56.27    \nframe=   55 fps=1.0 q=60.0 size=       1KiB time=00:00:00.45 bitrate=  10.0kbits/s speed=0.00791x elapsed=0:00:56.85    \nframe=   56 fps=1.0 q=58.0 size=       1KiB time=00:00:00.45 bitrate=   9.8kbits/s speed=0.00798x elapsed=0:00:57.42    \nframe=   58 fps=1.0 q=58.0 size=       1KiB time=00:00:00.46 bitrate=   9.6kbits/s speed=0.00805x elapsed=0:00:58.00    \nframe=   60 fps=1.0 q=58.0 size=       1KiB time=00:00:00.49 bitrate=   9.1kbits/s speed=0.00839x elapsed=0:00:58.57    \nframe=   61 fps=1.0 q=57.0 size=       1KiB time=00:00:00.50 bitrate=   9.0kbits/s speed=0.00845x elapsed=0:00:59.15    \nframe=   63 fps=1.1 q=60.0 size=       1KiB time=00:00:00.51 bitrate=   8.7kbits/s speed=0.00865x elapsed=0:00:59.75    \nframe=   65 fps=1.1 q=45.0 size=       1KiB time=00:00:00.53 bitrate=   8.4kbits/s speed=0.00884x elapsed=0:01:00.32    \nframe=   67 fps=1.1 q=60.0 size=       1KiB time=00:00:00.55 bitrate=   8.1kbits/s speed=0.00903x elapsed=0:01:00.89    \nframe=   67 fps=1.1 q=60.0 size=       1KiB time=00:00:00.55 bitrate=   8.1kbits/s speed=0.00895x elapsed=0:01:01.46    \nframe=   68 fps=1.1 q=59.0 size=       1KiB time=00:00:00.55 bitrate=   8.0kbits/s speed=0.009x elapsed=0:01:02.03    \nframe=   71 fps=1.1 q=60.0 size=       1KiB time=00:00:00.58 bitrate=   7.7kbits/s speed=0.00932x elapsed=0:01:02.58    \nframe=   71 fps=1.1 q=60.0 size=       1KiB time=00:00:00.58 bitrate=   7.7kbits/s speed=0.00924x elapsed=0:01:03.13    \nframe=   72 fps=1.1 q=59.0 size=       1KiB time=00:00:00.59 bitrate=   7.6kbits/s speed=0.00929x elapsed=0:01:03.69    \nframe=   73 fps=1.1 q=56.0 size=       1KiB time=00:00:00.60 bitrate=   7.5kbits/s speed=0.00933x elapsed=0:01:04.27    \nframe=   74 fps=1.1 q=60.0 size=       1KiB time=00:00:00.60 bitrate=   7.4kbits/s speed=0.00938x elapsed=0:01:04.85    \nframe=   75 fps=1.1 q=60.0 size=       1KiB time=00:00:00.61 bitrate=   7.3kbits/s speed=0.00942x elapsed=0:01:05.43    \nframe=   76 fps=1.2 q=60.0 size=       1KiB time=00:00:00.62 bitrate=   7.2kbits/s speed=0.00947x elapsed=0:01:05.99    \nframe=   77 fps=1.2 q=58.0 size=       1KiB time=00:00:00.63 bitrate=   7.1kbits/s speed=0.00952x elapsed=0:01:06.54    \nframe=   78 fps=1.2 q=61.0 size=       1KiB time=00:00:00.64 bitrate=   7.0kbits/s speed=0.00956x elapsed=0:01:07.11    \nframe=   80 fps=1.2 q=61.0 size=       1KiB time=00:00:00.65 bitrate=   6.8kbits/s speed=0.00973x elapsed=0:01:07.66    \nframe=   80 fps=1.2 q=61.0 size=       1KiB time=00:00:00.65 bitrate=   6.8kbits/s speed=0.00965x elapsed=0:01:08.23    \nframe=   82 fps=1.2 q=62.0 size=       1KiB time=00:00:00.67 bitrate=   6.6kbits/s speed=0.00981x elapsed=0:01:08.78    \nframe=   84 fps=1.2 q=62.0 size=       1KiB time=00:00:00.69 bitrate=   6.5kbits/s speed=0.00998x elapsed=0:01:09.33    \nframe=   85 fps=1.2 q=59.0 size=       1KiB time=00:00:00.70 bitrate=   6.4kbits/s speed=0.01x elapsed=0:01:09.88    \nframe=   87 fps=1.2 q=59.0 size=       1KiB time=00:00:00.70 bitrate=   6.3kbits/s speed=0.0101x elapsed=0:01:10.45    \nframe=   87 fps=1.2 q=59.0 size=       1KiB time=00:00:00.71 bitrate=   6.3kbits/s speed=0.0101x elapsed=0:01:10.99    \nframe=   88 fps=1.2 q=61.0 size=       1KiB time=00:00:00.72 bitrate=   6.2kbits/s speed=0.0101x elapsed=0:01:11.52    \nframe=   91 fps=1.3 q=61.0 size=       1KiB time=00:00:00.75 bitrate=   6.0kbits/s speed=0.0104x elapsed=0:01:12.06    \nframe=   92 fps=1.3 q=63.0 size=       1KiB time=00:00:00.75 bitrate=   5.9kbits/s speed=0.0104x elapsed=0:01:12.63    \nframe=   94 fps=1.3 q=63.0 size=       1KiB time=00:00:00.77 bitrate=   5.8kbits/s speed=0.0106x elapsed=0:01:13.21    \nframe=   97 fps=1.3 q=47.0 size=       1KiB time=00:00:00.79 bitrate=   5.7kbits/s speed=0.0107x elapsed=0:01:13.76    \nframe=   99 fps=1.3 q=63.0 size=       1KiB time=00:00:00.81 bitrate=   5.5kbits/s speed=0.011x elapsed=0:01:14.32    \nframe=  101 fps=1.3 q=61.0 size=       1KiB time=00:00:00.83 bitrate=   5.4kbits/s speed=0.0111x elapsed=0:01:14.89    \nframe=  103 fps=1.4 q=63.0 size=       1KiB time=00:00:00.85 bitrate=   5.3kbits/s speed=0.0113x elapsed=0:01:15.46    \nframe=  103 fps=1.4 q=63.0 size=       1KiB time=00:00:00.85 bitrate=   5.3kbits/s speed=0.0112x elapsed=0:01:16.00    \nframe=  104 fps=1.4 q=63.0 size=       1KiB time=00:00:00.85 bitrate=   5.2kbits/s speed=0.0112x elapsed=0:01:16.55    \nframe=  106 fps=1.4 q=63.0 size=       1KiB time=00:00:00.86 bitrate=   5.2kbits/s speed=0.0112x elapsed=0:01:17.11    \nframe=  108 fps=1.4 q=63.0 size=       1KiB time=00:00:00.89 bitrate=   5.0kbits/s speed=0.0115x elapsed=0:01:17.72    \nframe=  108 fps=1.4 q=63.0 size=       1KiB time=00:00:00.89 bitrate=   5.0kbits/s speed=0.0114x elapsed=0:01:18.31    \nframe=  110 fps=1.4 q=63.0 size=       1KiB time=00:00:00.90 bitrate=   4.9kbits/s speed=0.0115x elapsed=0:01:18.88    \nframe=  111 fps=1.4 q=61.0 size=       1KiB time=00:00:00.91 bitrate=   4.9kbits/s speed=0.0115x elapsed=0:01:19.45    \nframe=  112 fps=1.4 q=63.0 size=       1KiB time=00:00:00.92 bitrate=   4.8kbits/s speed=0.0116x elapsed=0:01:20.03    \nframe=  115 fps=1.4 q=63.0 size=       1KiB time=00:00:00.95 bitrate=   4.7kbits/s speed=0.0118x elapsed=0:01:20.59    \nframe=  117 fps=1.4 q=61.0 size=       1KiB time=00:00:00.95 bitrate=   4.7kbits/s speed=0.0118x elapsed=0:01:21.18    \nframe=  118 fps=1.4 q=63.0 size=       1KiB time=00:00:00.97 bitrate=   4.6kbits/s speed=0.0119x elapsed=0:01:21.77    \nframe=  119 fps=1.4 q=63.0 size=       1KiB time=00:00:00.97 bitrate=   4.6kbits/s speed=0.0118x elapsed=0:01:22.35    \nframe=  119 fps=1.4 q=63.0 size=       1KiB time=00:00:00.98 bitrate=   4.6kbits/s speed=0.0119x elapsed=0:01:22.92    \nframe=  119 fps=1.4 q=63.0 size=       1KiB time=00:00:00.98 bitrate=   4.6kbits/s speed=0.0118x elapsed=0:01:23.49    \nframe=  120 fps=1.4 q=58.0 size=       1KiB time=00:00:00.99 bitrate=   4.5kbits/s speed=0.0118x elapsed=0:01:24.06    \nframe=  120 fps=1.4 q=58.0 size=       1KiB time=00:00:00.99 bitrate=   4.5kbits/s speed=0.0117x elapsed=0:01:24.64    \nframe=  122 fps=1.4 q=63.0 size=       1KiB time=00:00:01.00 bitrate=   4.4kbits/s speed=0.0118x elapsed=0:01:25.21    \nframe=  123 fps=1.4 q=61.0 size=       1KiB time=00:00:01.01 bitrate=   4.4kbits/s speed=0.0119x elapsed=0:01:25.78    \nframe=  126 fps=1.5 q=63.0 size=       1KiB time=00:00:01.03 bitrate=   4.3kbits/s speed=0.012x elapsed=0:01:26.33    \nframe=  127 fps=1.5 q=61.0 size=       1KiB time=00:00:01.05 bitrate=   4.3kbits/s speed=0.0121x elapsed=0:01:26.90    \nframe=  130 fps=1.5 q=63.0 size=       1KiB time=00:00:01.07 bitrate=   4.2kbits/s speed=0.0123x elapsed=0:01:27.46    \nframe=  131 fps=1.5 q=63.0 size=       1KiB time=00:00:01.08 bitrate=   4.1kbits/s speed=0.0123x elapsed=0:01:28.01    \nframe=  131 fps=1.5 q=63.0 size=       1KiB time=00:00:01.08 bitrate=   4.1kbits/s speed=0.0122x elapsed=0:01:28.57    \nframe=  132 fps=1.5 q=58.0 size=       1KiB time=00:00:01.09 bitrate=   4.1kbits/s speed=0.0122x elapsed=0:01:29.15    \nframe=  133 fps=1.5 q=61.0 size=       1KiB time=00:00:01.10 bitrate=   4.1kbits/s speed=0.0123x elapsed=0:01:29.73    \nframe=  134 fps=1.5 q=62.0 size=       1KiB time=00:00:01.10 bitrate=   4.0kbits/s speed=0.0123x elapsed=0:01:30.30    \nframe=  134 fps=1.5 q=62.0 size=       1KiB time=00:00:01.10 bitrate=   4.0kbits/s speed=0.0122x elapsed=0:01:30.87    \nframe=  135 fps=1.5 q=59.0 size=       1KiB time=00:00:01.11 bitrate=   4.0kbits/s speed=0.0122x elapsed=0:01:31.44    \nframe=  136 fps=1.5 q=62.0 size=       1KiB time=00:00:01.12 bitrate=   4.0kbits/s speed=0.0122x elapsed=0:01:32.01    \nframe=  138 fps=1.5 q=63.0 size=       1KiB time=00:00:01.14 bitrate=   3.9kbits/s speed=0.0123x elapsed=0:01:32.59    \nframe=  139 fps=1.5 q=61.0 size=       1KiB time=00:00:01.15 bitrate=   3.9kbits/s speed=0.0123x elapsed=0:01:33.16    \nframe=  141 fps=1.5 q=58.0 size=       1KiB time=00:00:01.16 bitrate=   3.8kbits/s speed=0.0124x elapsed=0:01:33.74    \nframe=  143 fps=1.5 q=61.0 size=       1KiB time=00:00:01.17 bitrate=   3.8kbits/s speed=0.0125x elapsed=0:01:34.32    \nframe=  145 fps=1.5 q=51.0 size=       1KiB time=00:00:01.20 bitrate=   3.7kbits/s speed=0.0126x elapsed=0:01:34.90    \nframe=  147 fps=1.5 q=63.0 size=       1KiB time=00:00:01.21 bitrate=   3.7kbits/s speed=0.0127x elapsed=0:01:35.46    \nframe=  150 fps=1.6 q=63.0 size=       1KiB time=00:00:01.24 bitrate=   3.6kbits/s speed=0.0129x elapsed=0:01:36.00    \nframe=  150 fps=1.6 q=63.0 size=       1KiB time=00:00:01.24 bitrate=   3.6kbits/s speed=0.0129x elapsed=0:01:36.56    \nframe=  151 fps=1.6 q=63.0 size=       1KiB time=00:00:01.25 bitrate=   3.6kbits/s speed=0.0129x elapsed=0:01:37.10    \nframe=  152 fps=1.6 q=63.0 size=       1KiB time=00:00:01.25 bitrate=   3.6kbits/s speed=0.0129x elapsed=0:01:37.67    \nframe=  155 fps=1.6 q=61.0 size=       1KiB time=00:00:01.28 bitrate=   3.5kbits/s speed=0.0131x elapsed=0:01:38.23    \nframe=  156 fps=1.6 q=63.0 size=       1KiB time=00:00:01.29 bitrate=   3.5kbits/s speed=0.0131x elapsed=0:01:38.81    \nframe=  158 fps=1.6 q=63.0 size=       1KiB time=00:00:01.30 bitrate=   3.4kbits/s speed=0.0132x elapsed=0:01:39.41    \nframe=  159 fps=1.6 q=61.0 size=       1KiB time=00:00:01.31 bitrate=   3.4kbits/s speed=0.0132x elapsed=0:01:39.98    \nframe=  161 fps=1.6 q=51.0 size=       1KiB time=00:00:01.33 bitrate=   3.4kbits/s speed=0.0133x elapsed=0:01:40.54    \nframe=  163 fps=1.6 q=63.0 size=       1KiB time=00:00:01.35 bitrate=   3.3kbits/s speed=0.0134x elapsed=0:01:41.11    \nframe=  166 fps=1.6 q=63.0 size=       1KiB time=00:00:01.37 bitrate=   3.3kbits/s speed=0.0135x elapsed=0:01:41.67    \nframe=  166 fps=1.6 q=63.0 size=       1KiB time=00:00:01.37 bitrate=   3.3kbits/s speed=0.0134x elapsed=0:01:42.25    \nframe=  167 fps=1.6 q=63.0 size=       1KiB time=00:00:01.38 bitrate=   3.2kbits/s speed=0.0135x elapsed=0:01:42.80    \nframe=  170 fps=1.6 q=63.0 size=       1KiB time=00:00:01.40 bitrate=   3.2kbits/s speed=0.0135x elapsed=0:01:43.38    \nframe=  171 fps=1.6 q=63.0 size=       1KiB time=00:00:01.41 bitrate=   3.2kbits/s speed=0.0136x elapsed=0:01:43.95    \nframe=  174 fps=1.7 q=63.0 size=       1KiB time=00:00:01.44 bitrate=   3.1kbits/s speed=0.0138x elapsed=0:01:44.51    \nframe=  176 fps=1.7 q=63.0 size=       1KiB time=00:00:01.45 bitrate=   3.1kbits/s speed=0.0138x elapsed=0:01:45.09    \nframe=  178 fps=1.7 q=63.0 size=       1KiB time=00:00:01.47 bitrate=   3.0kbits/s speed=0.014x elapsed=0:01:45.66    \nframe=  179 fps=1.7 q=63.0 size=       1KiB time=00:00:01.48 bitrate=   3.0kbits/s speed=0.014x elapsed=0:01:46.23    \nframe=  182 fps=1.7 q=63.0 size=       1KiB time=00:00:01.50 bitrate=   3.0kbits/s speed=0.0141x elapsed=0:01:46.81    \nframe=  182 fps=1.7 q=63.0 size=       1KiB time=00:00:01.50 bitrate=   3.0kbits/s speed=0.014x elapsed=0:01:47.39    \nframe=  182 fps=1.7 q=63.0 size=       1KiB time=00:00:01.50 bitrate=   3.0kbits/s speed=0.014x elapsed=0:01:47.96    \nframe=  183 fps=1.7 q=63.0 size=       1KiB time=00:00:01.51 bitrate=   3.0kbits/s speed=0.014x elapsed=0:01:48.51    \nframe=  185 fps=1.7 q=59.0 size=       1KiB time=00:00:01.53 bitrate=   2.9kbits/s speed=0.0141x elapsed=0:01:49.07    \nframe=  187 fps=1.7 q=62.0 size=       1KiB time=00:00:01.55 bitrate=   2.9kbits/s speed=0.0141x elapsed=0:01:49.67    \nframe=  189 fps=1.7 q=59.0 size=       1KiB time=00:00:01.56 bitrate=   2.9kbits/s speed=0.0142x elapsed=0:01:50.24    \nframe=  190 fps=1.7 q=63.0 size=       1KiB time=00:00:01.57 bitrate=   2.8kbits/s speed=0.0142x elapsed=0:01:50.82    \nframe=  193 fps=1.7 q=53.0 size=       1KiB time=00:00:01.60 bitrate=   2.8kbits/s speed=0.0144x elapsed=0:01:51.40    \nframe=  195 fps=1.7 q=63.0 size=       1KiB time=00:00:01.61 bitrate=   2.8kbits/s speed=0.0144x elapsed=0:01:51.97    \nframe=  197 fps=1.8 q=62.0 size=       1KiB time=00:00:01.63 bitrate=   2.7kbits/s speed=0.0145x elapsed=0:01:52.56    \nframe=  197 fps=1.7 q=62.0 size=       1KiB time=00:00:01.63 bitrate=   2.7kbits/s speed=0.0144x elapsed=0:01:53.15    \nframe=  198 fps=1.7 q=63.0 size=       1KiB time=00:00:01.64 bitrate=   2.7kbits/s speed=0.0144x elapsed=0:01:53.72    \nframe=  199 fps=1.7 q=63.0 size=       1KiB time=00:00:01.65 bitrate=   2.7kbits/s speed=0.0144x elapsed=0:01:54.32    \nframe=  201 fps=1.7 q=59.0 size=       1KiB time=00:00:01.66 bitrate=   2.7kbits/s speed=0.0145x elapsed=0:01:54.89    \nframe=  202 fps=1.7 q=63.0 size=       1KiB time=00:00:01.67 bitrate=   2.7kbits/s speed=0.0145x elapsed=0:01:55.47    \nframe=  203 fps=1.7 q=63.0 size=       1KiB time=00:00:01.68 bitrate=   2.7kbits/s speed=0.0145x elapsed=0:01:56.05    \nframe=  205 fps=1.8 q=62.0 size=       1KiB time=00:00:01.70 bitrate=   2.6kbits/s speed=0.0146x elapsed=0:01:56.62    \nframe=  206 fps=1.8 q=62.0 size=       1KiB time=00:00:01.70 bitrate=   2.6kbits/s speed=0.0146x elapsed=0:01:57.19    \nframe=  207 fps=1.8 q=59.0 size=       1KiB time=00:00:01.71 bitrate=   2.6kbits/s speed=0.0146x elapsed=0:01:57.76    \nframe=  209 fps=1.8 q=53.0 size=       1KiB time=00:00:01.73 bitrate=   2.6kbits/s speed=0.0146x elapsed=0:01:58.34    \nframe=  210 fps=1.8 q=63.0 size=       1KiB time=00:00:01.74 bitrate=   2.6kbits/s speed=0.0146x elapsed=0:01:58.90    \nframe=  213 fps=1.8 q=62.0 size=       1KiB time=00:00:01.76 bitrate=   2.5kbits/s speed=0.0148x elapsed=0:01:59.46    \nframe=  214 fps=1.8 q=63.0 size=       1KiB time=00:00:01.77 bitrate=   2.5kbits/s speed=0.0148x elapsed=0:02:00.00    \nframe=  214 fps=1.8 q=63.0 size=       1KiB time=00:00:01.77 bitrate=   2.5kbits/s speed=0.0147x elapsed=0:02:00.55    \nframe=  215 fps=1.8 q=63.0 size=       1KiB time=00:00:01.78 bitrate=   2.5kbits/s speed=0.0147x elapsed=0:02:01.10    \nframe=  217 fps=1.8 q=59.0 size=       1KiB time=00:00:01.80 bitrate=   2.5kbits/s speed=0.0148x elapsed=0:02:01.64    \nframe=  220 fps=1.8 q=63.0 size=       1KiB time=00:00:01.82 bitrate=   2.5kbits/s speed=0.0149x elapsed=0:02:02.19    \nframe=  223 fps=1.8 q=62.0 size=       1KiB time=00:00:01.85 bitrate=   2.4kbits/s speed=0.0151x elapsed=0:02:02.74    \nframe=  224 fps=1.8 q=63.0 size=       1KiB time=00:00:01.85 bitrate=   2.4kbits/s speed=0.0151x elapsed=0:02:03.29    \nframe=  226 fps=1.8 q=63.0 size=       1KiB time=00:00:01.87 bitrate=   2.4kbits/s speed=0.0151x elapsed=0:02:03.85    \nframe=  227 fps=1.8 q=63.0 size=       1KiB time=00:00:01.88 bitrate=   2.4kbits/s speed=0.0151x elapsed=0:02:04.43    \nframe=  230 fps=1.8 q=63.0 size=       1KiB time=00:00:01.90 bitrate=   2.3kbits/s speed=0.0153x elapsed=0:02:04.98    \nframe=  230 fps=1.8 q=63.0 size=       1KiB time=00:00:01.90 bitrate=   2.3kbits/s speed=0.0152x elapsed=0:02:05.56    \nframe=  230 fps=1.8 q=63.0 size=       1KiB time=00:00:01.90 bitrate=   2.3kbits/s speed=0.0151x elapsed=0:02:06.14    \nframe=  231 fps=1.8 q=63.0 size=       1KiB time=00:00:01.91 bitrate=   2.3kbits/s speed=0.0151x elapsed=0:02:06.71    \nframe=  232 fps=1.8 q=63.0 size=       1KiB time=00:00:01.92 bitrate=   2.3kbits/s speed=0.0151x elapsed=0:02:07.29    \nframe=  235 fps=1.8 q=62.0 size=       1KiB time=00:00:01.95 bitrate=   2.3kbits/s speed=0.0152x elapsed=0:02:07.87    \nframe=  236 fps=1.8 q=63.0 size=       1KiB time=00:00:01.95 bitrate=   2.3kbits/s speed=0.0152x elapsed=0:02:08.45    \nframe=  237 fps=1.8 q=59.0 size=       1KiB time=00:00:01.96 bitrate=   2.3kbits/s speed=0.0152x elapsed=0:02:09.02    \nframe=  239 fps=1.8 q=62.0 size=       1KiB time=00:00:01.98 bitrate=   2.3kbits/s speed=0.0153x elapsed=0:02:09.59    \nframe=  242 fps=1.9 q=63.0 size=       1KiB time=00:00:02.00 bitrate=   2.2kbits/s speed=0.0154x elapsed=0:02:10.14    \nframe=  244 fps=1.9 q=63.0 size=       1KiB time=00:00:02.02 bitrate=   2.2kbits/s speed=0.0155x elapsed=0:02:10.69    \nframe=  246 fps=1.9 q=63.0 size=       1KiB time=00:00:02.04 bitrate=   2.2kbits/s speed=0.0156x elapsed=0:02:11.24    \nframe=  246 fps=1.9 q=63.0 size=       1KiB time=00:00:02.04 bitrate=   2.2kbits/s speed=0.0155x elapsed=0:02:11.80    \nframe=  247 fps=1.9 q=63.0 size=       1KiB time=00:00:02.05 bitrate=   2.2kbits/s speed=0.0155x elapsed=0:02:12.37    \nframe=  249 fps=1.9 q=59.0 size=       1KiB time=00:00:02.06 bitrate=   2.2kbits/s speed=0.0155x elapsed=0:02:12.96    \nframe=  252 fps=1.9 q=63.0 size=       1KiB time=00:00:02.09 bitrate=   2.1kbits/s speed=0.0157x elapsed=0:02:13.52    \nframe=  254 fps=1.9 q=63.0 size=       1KiB time=00:00:02.10 bitrate=   2.1kbits/s speed=0.0157x elapsed=0:02:14.07    \nframe=  255 fps=1.9 q=62.0 size=       1KiB time=00:00:02.11 bitrate=   2.1kbits/s speed=0.0157x elapsed=0:02:14.61    \nframe=  257 fps=1.9 q=54.0 size=       1KiB time=00:00:02.13 bitrate=   2.1kbits/s speed=0.0158x elapsed=0:02:15.15    \nframe=  259 fps=1.9 q=63.0 size=       1KiB time=00:00:02.15 bitrate=   2.1kbits/s speed=0.0158x elapsed=0:02:15.71    \nframe=  261 fps=1.9 q=62.0 size=       1KiB time=00:00:02.16 bitrate=   2.1kbits/s speed=0.0159x elapsed=0:02:16.27    \nframe=  262 fps=1.9 q=63.0 size=       1KiB time=00:00:02.17 bitrate=   2.1kbits/s speed=0.0159x elapsed=0:02:16.84    \nframe=  262 fps=1.9 q=63.0 size=       1KiB time=00:00:02.17 bitrate=   2.1kbits/s speed=0.0158x elapsed=0:02:17.44    \nframe=  263 fps=1.9 q=63.0 size=       1KiB time=00:00:02.18 bitrate=   2.1kbits/s speed=0.0158x elapsed=0:02:18.01    \nframe=  263 fps=1.9 q=63.0 size=       1KiB time=00:00:02.18 bitrate=   2.1kbits/s speed=0.0158x elapsed=0:02:18.58    \nframe=  264 fps=1.9 q=63.0 size=       1KiB time=00:00:02.19 bitrate=   2.0kbits/s speed=0.0157x elapsed=0:02:19.16    \nframe=  267 fps=1.9 q=62.0 size=       1KiB time=00:00:02.20 bitrate=   2.0kbits/s speed=0.0158x elapsed=0:02:19.74    \nframe=  267 fps=1.9 q=62.0 size=       1KiB time=00:00:02.21 bitrate=   2.0kbits/s speed=0.0158x elapsed=0:02:20.30    \nframe=  269 fps=1.9 q=59.0 size=       1KiB time=00:00:02.22 bitrate=   2.0kbits/s speed=0.0158x elapsed=0:02:20.85    \nframe=  270 fps=1.9 q=63.0 size=       1KiB time=00:00:02.24 bitrate=   2.0kbits/s speed=0.0159x elapsed=0:02:21.41    \nframe=  271 fps=1.9 q=62.0 size=       1KiB time=00:00:02.25 bitrate=   2.0kbits/s speed=0.0158x elapsed=0:02:21.96    \nframe=  273 fps=1.9 q=53.0 size=       1KiB time=00:00:02.26 bitrate=   2.0kbits/s speed=0.0159x elapsed=0:02:22.52    \nframe=  275 fps=1.9 q=63.0 size=       1KiB time=00:00:02.28 bitrate=   2.0kbits/s speed=0.016x elapsed=0:02:23.07    \nframe=  277 fps=1.9 q=62.0 size=       1KiB time=00:00:02.29 bitrate=   2.0kbits/s speed=0.016x elapsed=0:02:23.62    \nframe=  278 fps=1.9 q=63.0 size=       1KiB time=00:00:02.30 bitrate=   1.9kbits/s speed=0.016x elapsed=0:02:24.16    \nframe=  278 fps=1.9 q=63.0 size=       1KiB time=00:00:02.30 bitrate=   1.9kbits/s speed=0.0159x elapsed=0:02:24.72    \nframe=  279 fps=1.9 q=63.0 size=       1KiB time=00:00:02.31 bitrate=   1.9kbits/s speed=0.0159x elapsed=0:02:25.32    \nframe=  279 fps=1.9 q=63.0 size=       1KiB time=00:00:02.31 bitrate=   1.9kbits/s speed=0.0159x elapsed=0:02:25.90    \nframe=  281 fps=1.9 q=59.0 size=       1KiB time=00:00:02.32 bitrate=   1.9kbits/s speed=0.0159x elapsed=0:02:26.46    \nframe=  283 fps=1.9 q=62.0 size=       1KiB time=00:00:02.35 bitrate=   1.9kbits/s speed=0.016x elapsed=0:02:27.03    \nframe=  284 fps=1.9 q=63.0 size=       1KiB time=00:00:02.35 bitrate=   1.9kbits/s speed=0.016x elapsed=0:02:27.62    \nframe=  287 fps=1.9 q=62.0 size=       1KiB time=00:00:02.38 bitrate=   1.9kbits/s speed=0.0161x elapsed=0:02:28.19    \nframe=  289 fps=1.9 q=53.0 size=       1KiB time=00:00:02.40 bitrate=   1.9kbits/s speed=0.0161x elapsed=0:02:28.74    \nframe=  291 fps=1.9 q=63.0 size=       1KiB time=00:00:02.41 bitrate=   1.9kbits/s speed=0.0162x elapsed=0:02:29.30    \nframe=  293 fps=2.0 q=62.0 size=       1KiB time=00:00:02.43 bitrate=   1.8kbits/s speed=0.0162x elapsed=0:02:29.86    \nframe=  294 fps=2.0 q=63.0 size=       1KiB time=00:00:02.44 bitrate=   1.8kbits/s speed=0.0162x elapsed=0:02:30.43    \nframe=  294 fps=1.9 q=63.0 size=       1KiB time=00:00:02.44 bitrate=   1.8kbits/s speed=0.0162x elapsed=0:02:31.02    \nframe=  295 fps=1.9 q=63.0 size=       1KiB time=00:00:02.45 bitrate=   1.8kbits/s speed=0.0162x elapsed=0:02:31.58    \nframe=  295 fps=1.9 q=63.0 size=       1KiB time=00:00:02.45 bitrate=   1.8kbits/s speed=0.0161x elapsed=0:02:32.15    \nframe=  297 fps=1.9 q=59.0 size=       1KiB time=00:00:02.46 bitrate=   1.8kbits/s speed=0.0162x elapsed=0:02:32.71    \nframe=  299 fps=2.0 q=61.0 size=       1KiB time=00:00:02.48 bitrate=   1.8kbits/s speed=0.0162x elapsed=0:02:33.26    \nframe=  301 fps=2.0 q=58.0 size=       1KiB time=00:00:02.50 bitrate=   1.8kbits/s speed=0.0163x elapsed=0:02:33.81    \nframe=  302 fps=2.0 q=63.0 size=       1KiB time=00:00:02.50 bitrate=   1.8kbits/s speed=0.0162x elapsed=0:02:34.37    \nframe=  303 fps=2.0 q=61.0 size=       1KiB time=00:00:02.51 bitrate=   1.8kbits/s speed=0.0162x elapsed=0:02:34.96    \nframe=  304 fps=2.0 q=63.0 size=       1KiB time=00:00:02.52 bitrate=   1.8kbits/s speed=0.0162x elapsed=0:02:35.52    \nframe=  307 fps=2.0 q=63.0 size=       1KiB time=00:00:02.55 bitrate=   1.8kbits/s speed=0.0163x elapsed=0:02:36.07    \nframe=  307 fps=2.0 q=63.0 size=       1KiB time=00:00:02.55 bitrate=   1.8kbits/s speed=0.0163x elapsed=0:02:36.63    \nframe=  309 fps=2.0 q=61.0 size=       1KiB time=00:00:02.56 bitrate=   1.7kbits/s speed=0.0163x elapsed=0:02:37.22    \nframe=  310 fps=2.0 q=63.0 size=       1KiB time=00:00:02.57 bitrate=   1.7kbits/s speed=0.0163x elapsed=0:02:37.78    \nframe=  310 fps=2.0 q=63.0 size=       1KiB time=00:00:02.57 bitrate=   1.7kbits/s speed=0.0163x elapsed=0:02:38.33    \nframe=  311 fps=2.0 q=59.0 size=       1KiB time=00:00:02.58 bitrate=   1.7kbits/s speed=0.0163x elapsed=0:02:38.91    \nframe=  311 fps=1.9 q=59.0 size=       1KiB time=00:00:02.58 bitrate=   1.7kbits/s speed=0.0162x elapsed=0:02:39.51    \nframe=  312 fps=1.9 q=63.0 size=       1KiB time=00:00:02.59 bitrate=   1.7kbits/s speed=0.0162x elapsed=0:02:40.09    \nframe=  315 fps=2.0 q=61.0 size=       1KiB time=00:00:02.60 bitrate=   1.7kbits/s speed=0.0162x elapsed=0:02:40.67    \nframe=  315 fps=2.0 q=61.0 size=       1KiB time=00:00:02.61 bitrate=   1.7kbits/s speed=0.0162x elapsed=0:02:41.24    \nframe=  315 fps=1.9 q=61.0 size=       1KiB time=00:00:02.61 bitrate=   1.7kbits/s speed=0.0162x elapsed=0:02:41.85    \nframe=  317 fps=2.0 q=58.0 size=       1KiB time=00:00:02.63 bitrate=   1.7kbits/s speed=0.0162x elapsed=0:02:42.43    \nframe=  318 fps=2.0 q=63.0 size=       1KiB time=00:00:02.64 bitrate=   1.7kbits/s speed=0.0162x elapsed=0:02:43.01    \nframe=  319 fps=2.0 q=61.0 size=       1KiB time=00:00:02.65 bitrate=   1.7kbits/s speed=0.0162x elapsed=0:02:43.57    \nframe=  321 fps=2.0 q=52.0 size=       1KiB time=00:00:02.66 bitrate=   1.7kbits/s speed=0.0162x elapsed=0:02:44.14    \nframe=  323 fps=2.0 q=63.0 size=       1KiB time=00:00:02.68 bitrate=   1.7kbits/s speed=0.0163x elapsed=0:02:44.70    \nframe=  323 fps=2.0 q=63.0 size=       1KiB time=00:00:02.68 bitrate=   1.7kbits/s speed=0.0162x elapsed=0:02:45.28    \nframe=  324 fps=2.0 q=63.0 size=       1KiB time=00:00:02.69 bitrate=   1.7kbits/s speed=0.0162x elapsed=0:02:45.82    \nframe=  326 fps=2.0 q=63.0 size=       1KiB time=00:00:02.70 bitrate=   1.7kbits/s speed=0.0163x elapsed=0:02:46.40    \nframe=  326 fps=2.0 q=63.0 size=       1KiB time=00:00:02.70 bitrate=   1.7kbits/s speed=0.0162x elapsed=0:02:46.97    \nframe=  327 fps=2.0 q=59.0 size=       1KiB time=00:00:02.71 bitrate=   1.6kbits/s speed=0.0162x elapsed=0:02:47.59    \nframe=  327 fps=1.9 q=59.0 size=       1KiB time=00:00:02.71 bitrate=   1.6kbits/s speed=0.0162x elapsed=0:02:48.19    \nframe=  329 fps=1.9 q=58.0 size=       1KiB time=00:00:02.73 bitrate=   1.6kbits/s speed=0.0162x elapsed=0:02:48.76    \nframe=  331 fps=2.0 q=61.0 size=       1KiB time=00:00:02.75 bitrate=   1.6kbits/s speed=0.0162x elapsed=0:02:49.34    \nframe=  331 fps=1.9 q=61.0 size=       1KiB time=00:00:02.75 bitrate=   1.6kbits/s speed=0.0162x elapsed=0:02:49.92    \nframe=  334 fps=2.0 q=63.0 size=       1KiB time=00:00:02.77 bitrate=   1.6kbits/s speed=0.0163x elapsed=0:02:50.49    \nframe=  335 fps=2.0 q=61.0 size=       1KiB time=00:00:02.78 bitrate=   1.6kbits/s speed=0.0163x elapsed=0:02:51.05    \nframe=  337 fps=2.0 q=52.0 size=       1KiB time=00:00:02.80 bitrate=   1.6kbits/s speed=0.0163x elapsed=0:02:51.61    \nframe=  339 fps=2.0 q=63.0 size=       1KiB time=00:00:02.81 bitrate=   1.6kbits/s speed=0.0164x elapsed=0:02:52.16    \nframe=  340 fps=2.0 q=63.0 size=       1KiB time=00:00:02.82 bitrate=   1.6kbits/s speed=0.0164x elapsed=0:02:52.71    \nframe=  342 fps=2.0 q=63.0 size=       1KiB time=00:00:02.84 bitrate=   1.6kbits/s speed=0.0164x elapsed=0:02:53.27    \nframe=  342 fps=2.0 q=63.0 size=       1KiB time=00:00:02.84 bitrate=   1.6kbits/s speed=0.0163x elapsed=0:02:53.82    \nframe=  343 fps=2.0 q=59.0 size=       1KiB time=00:00:02.85 bitrate=   1.6kbits/s speed=0.0163x elapsed=0:02:54.38    \nframe=  344 fps=2.0 q=63.0 size=       1KiB time=00:00:02.85 bitrate=   1.6kbits/s speed=0.0163x elapsed=0:02:54.95    \nframe=  346 fps=2.0 q=63.0 size=       1KiB time=00:00:02.87 bitrate=   1.6kbits/s speed=0.0164x elapsed=0:02:55.56    \nframe=  347 fps=2.0 q=61.0 size=       1KiB time=00:00:02.88 bitrate=   1.6kbits/s speed=0.0164x elapsed=0:02:56.13    \nframe=  349 fps=2.0 q=58.0 size=       1KiB time=00:00:02.90 bitrate=   1.5kbits/s speed=0.0164x elapsed=0:02:56.69    \nframe=  351 fps=2.0 q=61.0 size=       1KiB time=00:00:02.90 bitrate=   1.5kbits/s speed=0.0164x elapsed=0:02:57.26    \nframe=  352 fps=2.0 q=63.0 size=       1KiB time=00:00:02.92 bitrate=   1.5kbits/s speed=0.0164x elapsed=0:02:57.83    \nframe=  356 fps=2.0 q=63.0 size=       1KiB time=00:00:02.95 bitrate=   1.5kbits/s speed=0.0166x elapsed=0:02:58.38    \nframe=  358 fps=2.0 q=63.0 size=       1KiB time=00:00:02.97 bitrate=   1.5kbits/s speed=0.0166x elapsed=0:02:58.94    \nframe=  358 fps=2.0 q=63.0 size=       1KiB time=00:00:02.97 bitrate=   1.5kbits/s speed=0.0166x elapsed=0:02:59.49    \nframe=  359 fps=2.0 q=63.0 size=       1KiB time=00:00:02.98 bitrate=   1.5kbits/s speed=0.0166x elapsed=0:03:00.05    \nframe=  360 fps=2.0 q=63.0 size=       1KiB time=00:00:02.99 bitrate=   1.5kbits/s speed=0.0166x elapsed=0:03:00.62    \nframe=  363 fps=2.0 q=62.0 size=       1KiB time=00:00:03.01 bitrate=   1.5kbits/s speed=0.0166x elapsed=0:03:01.18    \nframe=  365 fps=2.0 q=59.0 size=       1KiB time=00:00:03.02 bitrate=   1.5kbits/s speed=0.0166x elapsed=0:03:01.73    \nframe=  367 fps=2.0 q=62.0 size=       1KiB time=00:00:03.05 bitrate=   1.5kbits/s speed=0.0167x elapsed=0:03:02.30    \nframe=  369 fps=2.0 q=52.0 size=       1KiB time=00:00:03.06 bitrate=   1.5kbits/s speed=0.0168x elapsed=0:03:02.85    \nframe=  371 fps=2.0 q=63.0 size=       1KiB time=00:00:03.08 bitrate=   1.5kbits/s speed=0.0168x elapsed=0:03:03.40    \nframe=  374 fps=2.0 q=63.0 size=       1KiB time=00:00:03.10 bitrate=   1.4kbits/s speed=0.0169x elapsed=0:03:03.96    \nframe=  374 fps=2.0 q=63.0 size=       1KiB time=00:00:03.10 bitrate=   1.4kbits/s speed=0.0168x elapsed=0:03:04.51    \nframe=  375 fps=2.0 q=63.0 size=       1KiB time=00:00:03.11 bitrate=   1.4kbits/s speed=0.0168x elapsed=0:03:05.09    \nframe=  375 fps=2.0 q=63.0 size=       1KiB time=00:00:03.11 bitrate=   1.4kbits/s speed=0.0168x elapsed=0:03:05.70    \nframe=  377 fps=2.0 q=59.0 size=       1KiB time=00:00:03.13 bitrate=   1.4kbits/s speed=0.0168x elapsed=0:03:06.28    \nframe=  379 fps=2.0 q=62.0 size=       1KiB time=00:00:03.15 bitrate=   1.4kbits/s speed=0.0169x elapsed=0:03:06.84    \nframe=  379 fps=2.0 q=62.0 size=       1KiB time=00:00:03.15 bitrate=   1.4kbits/s speed=0.0168x elapsed=0:03:07.42    \nframe=  381 fps=2.0 q=59.0 size=       1KiB time=00:00:03.16 bitrate=   1.4kbits/s speed=0.0168x elapsed=0:03:07.99    \nframe=  383 fps=2.0 q=62.0 size=       1KiB time=00:00:03.18 bitrate=   1.4kbits/s speed=0.0169x elapsed=0:03:08.58    \nframe=  385 fps=2.0 q=53.0 size=       1KiB time=00:00:03.20 bitrate=   1.4kbits/s speed=0.0169x elapsed=0:03:09.14    \nframe=  387 fps=2.0 q=63.0 size=       1KiB time=00:00:03.21 bitrate=   1.4kbits/s speed=0.017x elapsed=0:03:09.67    \nframe=  389 fps=2.0 q=62.0 size=       1KiB time=00:00:03.23 bitrate=   1.4kbits/s speed=0.017x elapsed=0:03:10.23    \nframe=  390 fps=2.0 q=63.0 size=       1KiB time=00:00:03.24 bitrate=   1.4kbits/s speed=0.017x elapsed=0:03:10.82    \nframe=  390 fps=2.0 q=63.0 size=       1KiB time=00:00:03.24 bitrate=   1.4kbits/s speed=0.0169x elapsed=0:03:11.40    \nframe=  390 fps=2.0 q=63.0 size=       1KiB time=00:00:03.24 bitrate=   1.4kbits/s speed=0.0169x elapsed=0:03:11.99    \nframe=  391 fps=2.0 q=63.0 size=       1KiB time=00:00:03.25 bitrate=   1.4kbits/s speed=0.0169x elapsed=0:03:12.57    \nframe=  392 fps=2.0 q=63.0 size=       1KiB time=00:00:03.25 bitrate=   1.4kbits/s speed=0.0169x elapsed=0:03:13.16    \nframe=  394 fps=2.0 q=63.0 size=       1KiB time=00:00:03.27 bitrate=   1.4kbits/s speed=0.0169x elapsed=0:03:13.76    \nframe=  395 fps=2.0 q=62.0 size=       1KiB time=00:00:03.28 bitrate=   1.4kbits/s speed=0.0169x elapsed=0:03:14.35    \nframe=  397 fps=2.0 q=59.0 size=       1KiB time=00:00:03.29 bitrate=   1.4kbits/s speed=0.0169x elapsed=0:03:14.93    \nframe=  398 fps=2.0 q=63.0 size=       1KiB time=00:00:03.30 bitrate=   1.4kbits/s speed=0.0169x elapsed=0:03:15.49    \nframe=  401 fps=2.0 q=54.0 size=       1KiB time=00:00:03.32 bitrate=   1.3kbits/s speed=0.017x elapsed=0:03:16.06    \nframe=  402 fps=2.0 q=63.0 size=       1KiB time=00:00:03.34 bitrate=   1.3kbits/s speed=0.017x elapsed=0:03:16.62    \nframe=  406 fps=2.1 q=63.0 size=       1KiB time=00:00:03.36 bitrate=   1.3kbits/s speed=0.0171x elapsed=0:03:17.17    \nframe=  406 fps=2.1 q=63.0 size=       1KiB time=00:00:03.37 bitrate=   1.3kbits/s speed=0.0171x elapsed=0:03:17.71    \nframe=  406 fps=2.0 q=63.0 size=       1KiB time=00:00:03.37 bitrate=   1.3kbits/s speed=0.017x elapsed=0:03:18.28    \nframe=  407 fps=2.0 q=63.0 size=       1KiB time=00:00:03.38 bitrate=   1.3kbits/s speed=0.017x elapsed=0:03:18.83    \nframe=  408 fps=2.0 q=63.0 size=       1KiB time=00:00:03.38 bitrate=   1.3kbits/s speed=0.017x elapsed=0:03:19.41    \nframe=  409 fps=2.0 q=59.0 size=       1KiB time=00:00:03.40 bitrate=   1.3kbits/s speed=0.017x elapsed=0:03:19.99    \nframe=  411 fps=2.0 q=61.0 size=       1KiB time=00:00:03.41 bitrate=   1.3kbits/s speed=0.017x elapsed=0:03:20.55    \nframe=  411 fps=2.0 q=61.0 size=       1KiB time=00:00:03.41 bitrate=   1.3kbits/s speed=0.017x elapsed=0:03:21.13    \nframe=  413 fps=2.0 q=58.0 size=       1KiB time=00:00:03.43 bitrate=   1.3kbits/s speed=0.017x elapsed=0:03:21.71    \nframe=  414 fps=2.0 q=63.0 size=       1KiB time=00:00:03.44 bitrate=   1.3kbits/s speed=0.017x elapsed=0:03:22.27    \nframe=  416 fps=2.1 q=63.0 size=       1KiB time=00:00:03.45 bitrate=   1.3kbits/s speed=0.017x elapsed=0:03:22.83    \nframe=  418 fps=2.1 q=63.0 size=       1KiB time=00:00:03.47 bitrate=   1.3kbits/s speed=0.0171x elapsed=0:03:23.37    \nframe=  419 fps=2.1 q=63.0 size=       1KiB time=00:00:03.48 bitrate=   1.3kbits/s speed=0.0171x elapsed=0:03:23.90    \nframe=  420 fps=2.1 q=63.0 size=       1KiB time=00:00:03.49 bitrate=   1.3kbits/s speed=0.0171x elapsed=0:03:24.46    \nframe=  421 fps=2.1 q=61.0 size=       1KiB time=00:00:03.50 bitrate=   1.3kbits/s speed=0.0171x elapsed=0:03:25.02    \nframe=  422 fps=2.1 q=63.0 size=       1KiB time=00:00:03.50 bitrate=   1.3kbits/s speed=0.0171x elapsed=0:03:25.59    \nframe=  422 fps=2.0 q=63.0 size=       1KiB time=00:00:03.50 bitrate=   1.3kbits/s speed=0.017x elapsed=0:03:26.16    \nframe=  423 fps=2.0 q=59.0 size=       1KiB time=00:00:03.51 bitrate=   1.3kbits/s speed=0.017x elapsed=0:03:26.72    \nframe=  423 fps=2.0 q=59.0 size=       1KiB time=00:00:03.51 bitrate=   1.3kbits/s speed=0.017x elapsed=0:03:27.29    \nframe=  424 fps=2.0 q=63.0 size=       1KiB time=00:00:03.52 bitrate=   1.3kbits/s speed=0.017x elapsed=0:03:27.84    \nframe=  427 fps=2.0 q=62.0 size=       1KiB time=00:00:03.55 bitrate=   1.3kbits/s speed=0.017x elapsed=0:03:28.38    \nframe=  428 fps=2.0 q=63.0 size=       1KiB time=00:00:03.55 bitrate=   1.3kbits/s speed=0.017x elapsed=0:03:28.90    \nframe=  430 fps=2.1 q=63.0 size=       1KiB time=00:00:03.57 bitrate=   1.3kbits/s speed=0.0171x elapsed=0:03:29.43    \nframe=  431 fps=2.1 q=62.0 size=       1KiB time=00:00:03.58 bitrate=   1.3kbits/s speed=0.0171x elapsed=0:03:29.99    \nframe=  433 fps=2.1 q=52.0 size=       1KiB time=00:00:03.60 bitrate=   1.2kbits/s speed=0.0171x elapsed=0:03:30.50    \nframe=  434 fps=2.1 q=63.0 size=       1KiB time=00:00:03.60 bitrate=   1.2kbits/s speed=0.0171x elapsed=0:03:31.04    \nframe=  436 fps=2.1 q=63.0 size=       1KiB time=00:00:03.61 bitrate=   1.2kbits/s speed=0.0171x elapsed=0:03:31.56    \nframe=  437 fps=2.1 q=62.0 size=       1KiB time=00:00:03.63 bitrate=   1.2kbits/s speed=0.0171x elapsed=0:03:32.12    \nframe=  438 fps=2.1 q=63.0 size=       1KiB time=00:00:03.64 bitrate=   1.2kbits/s speed=0.0171x elapsed=0:03:32.67    \nframe=  438 fps=2.1 q=63.0 size=       1KiB time=00:00:03.64 bitrate=   1.2kbits/s speed=0.0171x elapsed=0:03:33.20    \nframe=  439 fps=2.1 q=63.0 size=       1KiB time=00:00:03.65 bitrate=   1.2kbits/s speed=0.0171x elapsed=0:03:33.76    \nframe=  439 fps=2.0 q=63.0 size=       1KiB time=00:00:03.65 bitrate=   1.2kbits/s speed=0.017x elapsed=0:03:34.36    \nframe=  440 fps=2.0 q=63.0 size=       1KiB time=00:00:03.65 bitrate=   1.2kbits/s speed=0.017x elapsed=0:03:34.96    \nframe=  441 fps=2.0 q=59.0 size=       1KiB time=00:00:03.66 bitrate=   1.2kbits/s speed=0.017x elapsed=0:03:35.55    \nframe=  443 fps=2.0 q=61.0 size=       1KiB time=00:00:03.68 bitrate=   1.2kbits/s speed=0.017x elapsed=0:03:36.15    \nframe=  443 fps=2.0 q=61.0 size=       1KiB time=00:00:03.68 bitrate=   1.2kbits/s speed=0.017x elapsed=0:03:36.73    \nframe=  444 fps=2.0 q=63.0 size=       1KiB time=00:00:03.69 bitrate=   1.2kbits/s speed=0.017x elapsed=0:03:37.32    \nframe=  445 fps=2.0 q=58.0 size=       1KiB time=00:00:03.70 bitrate=   1.2kbits/s speed=0.017x elapsed=0:03:37.91    \nframe=  447 fps=2.0 q=61.0 size=       1KiB time=00:00:03.71 bitrate=   1.2kbits/s speed=0.017x elapsed=0:03:38.58    \nframe=  452 fps=2.1 q=63.0 size=       1KiB time=00:00:03.75 bitrate=   1.2kbits/s speed=0.0171x elapsed=0:03:39.38    \nframe=  454 fps=2.1 q=63.0 size=       1KiB time=00:00:03.77 bitrate=   1.2kbits/s speed=0.0171x elapsed=0:03:40.25    \nframe=  455 fps=2.1 q=63.0 size=       1KiB time=00:00:03.78 bitrate=   1.2kbits/s speed=0.0171x elapsed=0:03:41.05    \nframe=  458 fps=2.1 q=63.0 size=       1KiB time=00:00:03.80 bitrate=   1.2kbits/s speed=0.0172x elapsed=0:03:41.71    \nframe=  459 fps=2.1 q=61.0 size=       1KiB time=00:00:03.81 bitrate=   1.2kbits/s speed=0.0172x elapsed=0:03:42.30    \nframe=  462 fps=2.1 q=63.0 size=       1KiB time=00:00:03.84 bitrate=   1.2kbits/s speed=0.0172x elapsed=0:03:42.88    \nframe=  466 fps=2.1 q=63.0 size=       1KiB time=00:00:03.86 bitrate=   1.2kbits/s speed=0.0173x elapsed=0:03:43.43    \nframe=  469 fps=2.1 q=61.0 size=       1KiB time=00:00:03.90 bitrate=   1.1kbits/s speed=0.0174x elapsed=0:03:44.18    \nframe=  471 fps=2.1 q=59.0 size=       1KiB time=00:00:03.91 bitrate=   1.1kbits/s speed=0.0174x elapsed=0:03:44.90    \nframe=  474 fps=2.1 q=63.0 size=       1KiB time=00:00:03.93 bitrate=   1.1kbits/s speed=0.0174x elapsed=0:03:45.73    \nframe=  478 fps=2.1 q=63.0 size=       1KiB time=00:00:03.95 bitrate=   1.1kbits/s speed=0.0175x elapsed=0:03:46.63    \nframe=  483 fps=2.1 q=63.0 size=       1KiB time=00:00:04.00 bitrate=   1.1kbits/s speed=0.0176x elapsed=0:03:47.50    \nframe=  486 fps=2.1 q=63.0 size=       1KiB time=00:00:04.04 bitrate=   1.1kbits/s speed=0.0177x elapsed=0:03:48.48    \nframe=  488 fps=2.1 q=63.0 size=       1KiB time=00:00:04.05 bitrate=   1.1kbits/s speed=0.0177x elapsed=0:03:49.00    \nframe=  490 fps=2.1 q=63.0 size=       1KiB time=00:00:04.06 bitrate=   1.1kbits/s speed=0.0177x elapsed=0:03:49.51    \nframe=  492 fps=2.1 q=63.0 size=       1KiB time=00:00:04.09 bitrate=   1.1kbits/s speed=0.0178x elapsed=0:03:50.10    \nframe=  494 fps=2.1 q=63.0 size=       1KiB time=00:00:04.10 bitrate=   1.1kbits/s speed=0.0178x elapsed=0:03:50.63    \nframe=  495 fps=2.1 q=63.0 size=       1KiB time=00:00:04.11 bitrate=   1.1kbits/s speed=0.0178x elapsed=0:03:51.15    \nframe=  498 fps=2.1 q=63.0 size=       1KiB time=00:00:04.14 bitrate=   1.1kbits/s speed=0.0179x elapsed=0:03:51.66    \nframe=  502 fps=2.2 q=63.0 size=       1KiB time=00:00:04.17 bitrate=   1.1kbits/s speed=0.018x elapsed=0:03:52.19    \nframe=  502 fps=2.2 q=63.0 size=       1KiB time=00:00:04.17 bitrate=   1.1kbits/s speed=0.0179x elapsed=0:03:52.73    \nframe=  505 fps=2.2 q=58.0 size=       1KiB time=00:00:04.20 bitrate=   1.1kbits/s speed=0.018x elapsed=0:03:53.24    \nframe=  507 fps=2.2 q=61.0 size=       1KiB time=00:00:04.21 bitrate=   1.1kbits/s speed=0.018x elapsed=0:03:53.76    \nframe=  511 fps=2.2 q=61.0 size=       1KiB time=00:00:04.25 bitrate=   1.1kbits/s speed=0.0181x elapsed=0:03:54.28    \nframe=  513 fps=2.2 q=52.0 size=       1KiB time=00:00:04.26 bitrate=   1.0kbits/s speed=0.0182x elapsed=0:03:54.80    \nframe=  513 fps=2.2 q=52.0 size=       1KiB time=00:00:04.26 bitrate=   1.0kbits/s speed=0.0181x elapsed=0:03:55.33    \nframe=  517 fps=2.2 q=61.0 size=       1KiB time=00:00:04.30 bitrate=   1.0kbits/s speed=0.0182x elapsed=0:03:55.88    \nframe=  519 fps=2.2 q=59.0 size=       1KiB time=00:00:04.30 bitrate=   1.0kbits/s speed=0.0182x elapsed=0:03:56.40    \nframe=  521 fps=2.2 q=58.0 size=       1KiB time=00:00:04.33 bitrate=   1.0kbits/s speed=0.0183x elapsed=0:03:56.99    \nframe=  521 fps=2.2 q=58.0 size=       1KiB time=00:00:04.33 bitrate=   1.0kbits/s speed=0.0182x elapsed=0:03:57.54    \nframe=  521 fps=2.2 q=58.0 size=       1KiB time=00:00:04.33 bitrate=   1.0kbits/s speed=0.0182x elapsed=0:03:58.08    \nframe=  525 fps=2.2 q=58.0 size=       1KiB time=00:00:04.36 bitrate=   1.0kbits/s speed=0.0183x elapsed=0:03:58.72    \nframe=  525 fps=2.2 q=58.0 size=       1KiB time=00:00:04.36 bitrate=   1.0kbits/s speed=0.0183x elapsed=0:03:59.22    \nframe=  525 fps=2.2 q=58.0 size=       1KiB time=00:00:04.36 bitrate=   1.0kbits/s speed=0.0182x elapsed=0:03:59.75    \nframe=  527 fps=2.2 q=61.0 size=       1KiB time=00:00:04.38 bitrate=   1.0kbits/s speed=0.0182x elapsed=0:04:00.26    \nframe=  529 fps=2.2 q=52.0 size=       1KiB time=00:00:04.40 bitrate=   1.0kbits/s speed=0.0183x elapsed=0:04:00.78    \nframe=  533 fps=2.2 q=61.0 size=       1KiB time=00:00:04.43 bitrate=   1.0kbits/s speed=0.0184x elapsed=0:04:01.29    \nframe=  537 fps=2.2 q=58.0 size=       1KiB time=00:00:04.46 bitrate=   1.0kbits/s speed=0.0185x elapsed=0:04:01.81    \nframe=  537 fps=2.2 q=58.0 size=       1KiB time=00:00:04.46 bitrate=   1.0kbits/s speed=0.0184x elapsed=0:04:02.32    \nframe=  541 fps=2.2 q=58.0 size=       1KiB time=00:00:04.50 bitrate=   1.0kbits/s speed=0.0185x elapsed=0:04:02.83    \nframe=  541 fps=2.2 q=58.0 size=       1KiB time=00:00:04.50 bitrate=   1.0kbits/s speed=0.0185x elapsed=0:04:03.35    \nframe=  541 fps=2.2 q=58.0 size=       1KiB time=00:00:04.50 bitrate=   1.0kbits/s speed=0.0185x elapsed=0:04:03.88    \nframe=  545 fps=2.2 q=52.0 size=       1KiB time=00:00:04.53 bitrate=   1.0kbits/s speed=0.0185x elapsed=0:04:04.40    \nframe=  551 fps=2.2 q=59.0 size=       1KiB time=00:00:04.58 bitrate=   1.0kbits/s speed=0.0187x elapsed=0:04:04.90    \nframe=  553 fps=2.3 q=58.0 size=       1KiB time=00:00:04.60 bitrate=   1.0kbits/s speed=0.0187x elapsed=0:04:05.41    \nframe=  555 fps=2.3 q=62.0 size=       1KiB time=00:00:04.61 bitrate=   1.0kbits/s speed=0.0188x elapsed=0:04:05.93    \nframe=  557 fps=2.3 q=59.0 size=       1KiB time=00:00:04.63 bitrate=   1.0kbits/s speed=0.0188x elapsed=0:04:06.45    \nframe=  559 fps=2.3 q=62.0 size=       1KiB time=00:00:04.65 bitrate=   1.0kbits/s speed=0.0188x elapsed=0:04:06.96    \nframe=  565 fps=2.3 q=62.0 size=       1KiB time=00:00:04.70 bitrate=   1.0kbits/s speed=0.019x elapsed=0:04:07.48    \nframe=  569 fps=2.3 q=59.0 size=       1KiB time=00:00:04.73 bitrate=   0.9kbits/s speed=0.0191x elapsed=0:04:07.99    \nframe=  569 fps=2.3 q=59.0 size=       1KiB time=00:00:04.73 bitrate=   0.9kbits/s speed=0.019x elapsed=0:04:08.51    \nframe=  573 fps=2.3 q=60.0 size=       1KiB time=00:00:04.76 bitrate=   0.9kbits/s speed=0.0191x elapsed=0:04:09.03    \nframe=  577 fps=2.3 q=54.0 size=       1KiB time=00:00:04.80 bitrate=   0.9kbits/s speed=0.0192x elapsed=0:04:09.54    \nframe=  583 fps=2.3 q=63.0 size=       1KiB time=00:00:04.85 bitrate=   0.9kbits/s speed=0.0194x elapsed=0:04:10.06    \nframe=  585 fps=2.3 q=62.0 size=       1KiB time=00:00:04.86 bitrate=   0.9kbits/s speed=0.0194x elapsed=0:04:10.58    \nframe=  585 fps=2.3 q=62.0 size=       1KiB time=00:00:04.86 bitrate=   0.9kbits/s speed=0.0194x elapsed=0:04:11.09    \nframe=  589 fps=2.3 q=63.0 size=       1KiB time=00:00:04.90 bitrate=   0.9kbits/s speed=0.0195x elapsed=0:04:11.61    \n[out#0/matroska @ 000001923e439940] video:791KiB audio:0KiB subtitle:0KiB other streams:0KiB global headers:0KiB muxing overhead: 0.408286%\nframe=  600 fps=2.4 q=63.0 Lsize=     794KiB time=00:00:04.99 bitrate=1303.8kbits/s speed=0.0198x elapsed=0:04:11.81    \n",
  "seconds": 253.74169445037842,
  "probe_out": {}
}